<svg xmlns="http://www.w3.org/2000/svg" xmlns:xlink="http://www.w3.org/1999/xlink" width="432" zoomAndPan="magnify" viewBox="0 0 324 323.999988" height="432" preserveAspectRatio="xMidYMid meet" version="1.0"><path fill="#ffffff" d="M 208.179688 69.296875 C 175.152344 69.296875 149.277344 88.421875 149.277344 112.832031 C 149.277344 137.253906 175.152344 156.382812 208.179688 156.382812 C 241.203125 156.382812 267.066406 137.253906 267.066406 112.832031 C 267.066406 88.421875 241.199219 69.296875 208.179688 69.296875 Z M 208.179688 138.3125 C 186.046875 138.3125 167.351562 126.644531 167.351562 112.835938 C 167.351562 99.035156 186.046875 87.371094 208.179688 87.371094 C 230.304688 87.371094 249 99.035156 249 112.835938 C 248.996094 126.644531 230.304688 138.3125 208.179688 138.3125 Z M 208.179688 138.3125 " fill-opacity="1" fill-rule="nonzero"/><path fill="#ffffff" d="M 162 -0.160156 C 72.710938 -0.160156 0.0703125 72.480469 0.0703125 161.765625 C 0.0703125 199.300781 12.9375 233.863281 34.449219 261.351562 C 34.609375 261.585938 34.734375 261.84375 34.917969 262.066406 C 35.050781 262.234375 35.21875 262.355469 35.363281 262.507812 C 65.050781 299.757812 110.769531 323.707031 162 323.707031 C 186.878906 323.707031 210.460938 318.050781 231.542969 307.984375 C 231.8125 307.863281 232.082031 307.757812 232.34375 307.609375 C 265.683594 291.464844 292.667969 264.210938 308.5 230.6875 C 308.808594 230.152344 309.074219 229.585938 309.265625 228.996094 C 318.664062 208.503906 323.945312 185.746094 323.945312 161.761719 C 323.941406 72.476562 251.292969 -0.160156 162 -0.160156 Z M 305.871094 161.761719 C 305.871094 182.257812 301.53125 201.746094 293.777344 219.402344 C 263.753906 233.105469 215.125 227.691406 172.007812 222.84375 C 154.246094 220.847656 137.46875 218.960938 123.277344 218.605469 C 76.671875 217.390625 54.335938 232.9375 43.261719 242.863281 C 35.414062 231.414062 29.183594 218.785156 24.894531 205.292969 C 53.316406 188.359375 134.578125 181.992188 168.871094 191.589844 C 169.121094 191.660156 169.367188 191.671875 169.613281 191.722656 C 180.457031 195.378906 191.566406 197.734375 203.050781 197.734375 C 203.886719 197.734375 204.730469 197.722656 205.574219 197.699219 C 237.464844 196.722656 263.039062 181.859375 283.589844 169.910156 C 292.164062 164.925781 299.800781 160.515625 305.789062 158.414062 C 305.808594 159.535156 305.871094 160.644531 305.871094 161.761719 Z M 18.140625 161.761719 C 18.140625 160.027344 18.214844 158.300781 18.269531 156.574219 C 18.457031 156.5 18.648438 156.457031 18.835938 156.367188 C 19.019531 156.277344 37.558594 147.453125 67.441406 150.054688 C 85.121094 151.59375 102.714844 159.898438 121.128906 169.320312 C 85.515625 169.75 44.394531 175.632812 20.453125 187.28125 C 18.964844 178.996094 18.140625 170.476562 18.140625 161.761719 Z M 274.511719 154.296875 C 255.71875 165.214844 232.335938 178.804688 205.023438 179.636719 C 181.945312 180.316406 159.457031 168.753906 135.683594 156.488281 C 114.324219 145.464844 92.242188 134.074219 69.007812 132.050781 C 46.988281 130.136719 30.175781 133.585938 20.398438 136.570312 C 22.507812 124.667969 26.085938 113.269531 30.941406 102.5625 C 33.980469 102.8125 36.953125 102.964844 39.835938 102.964844 C 68.09375 102.964844 89.175781 91.421875 111.34375 79.28125 C 137.484375 64.964844 164.460938 50.238281 208.753906 50.519531 C 243.292969 50.804688 277.277344 77.179688 277.605469 77.445312 C 278.105469 77.832031 278.621094 78.164062 279.164062 78.433594 C 291.964844 96.367188 300.777344 117.320312 304.234375 140.023438 C 295.277344 142.226562 285.554688 147.875 274.511719 154.296875 Z M 162 17.90625 C 186.578125 17.90625 209.734375 24.113281 229.996094 35.027344 C 223.183594 33.484375 216.097656 32.515625 208.898438 32.457031 C 159.976562 31.996094 129.515625 48.730469 102.664062 63.4375 C 82.0625 74.71875 63.933594 84.640625 40.507812 84.871094 C 66.046875 44.664062 110.945312 17.90625 162 17.90625 Z M 115.441406 297.855469 C 136.160156 286.296875 172.3125 282.792969 206.800781 298.453125 C 192.6875 303.089844 177.640625 305.632812 162 305.632812 C 145.710938 305.632812 130.054688 302.871094 115.441406 297.855469 Z M 228.308594 289.375 C 180.78125 260.824219 123.238281 266.191406 95.90625 289.480469 C 80.160156 281.300781 66.105469 270.304688 54.425781 257.144531 C 63.605469 248.707031 81.566406 235.636719 122.820312 236.675781 C 136.222656 237.011719 152.625 238.855469 169.992188 240.804688 C 207.222656 244.992188 248.367188 249.574219 281.074219 242.421875 C 267.6875 262.117188 249.539062 278.296875 228.308594 289.375 Z M 228.308594 289.375 " fill-opacity="1" fill-rule="nonzero"/><path fill="#ffffff" d="M 208.179688 69.296875 C 175.152344 69.296875 149.277344 88.421875 149.277344 112.832031 C 149.277344 137.253906 175.152344 156.382812 208.179688 156.382812 C 241.203125 156.382812 267.066406 137.253906 267.066406 112.832031 C 267.066406 88.421875 241.199219 69.296875 208.179688 69.296875 Z M 208.179688 138.3125 C 186.046875 138.3125 167.351562 126.644531 167.351562 112.835938 C 167.351562 99.035156 186.046875 87.371094 208.179688 87.371094 C 230.304688 87.371094 249 99.035156 249 112.835938 C 248.996094 126.644531 230.304688 138.3125 208.179688 138.3125 Z M 208.179688 138.3125 " fill-opacity="1" fill-rule="nonzero"/><path fill="#ffffff" d="M 162 -0.160156 C 72.710938 -0.160156 0.0703125 72.480469 0.0703125 161.765625 C 0.0703125 199.300781 12.9375 233.863281 34.449219 261.351562 C 34.609375 261.585938 34.734375 261.84375 34.917969 262.066406 C 35.050781 262.234375 35.21875 262.355469 35.363281 262.507812 C 65.050781 299.757812 110.769531 323.707031 162 323.707031 C 186.878906 323.707031 210.460938 318.050781 231.542969 307.984375 C 231.8125 307.863281 232.082031 307.757812 232.34375 307.609375 C 265.683594 291.464844 292.667969 264.210938 308.5 230.6875 C 308.808594 230.152344 309.074219 229.585938 309.265625 228.996094 C 318.664062 208.503906 323.945312 185.746094 323.945312 161.761719 C 323.941406 72.476562 251.292969 -0.160156 162 -0.160156 Z M 305.871094 161.761719 C 305.871094 182.257812 301.53125 201.746094 293.777344 219.402344 C 263.753906 233.105469 215.125 227.691406 172.007812 222.84375 C 154.246094 220.847656 137.46875 218.960938 123.277344 218.605469 C 76.671875 217.390625 54.335938 232.9375 43.261719 242.863281 C 35.414062 231.414062 29.183594 218.785156 24.894531 205.292969 C 53.316406 188.359375 134.578125 181.992188 168.871094 191.589844 C 169.121094 191.660156 169.367188 191.671875 169.613281 191.722656 C 180.457031 195.378906 191.566406 197.734375 203.050781 197.734375 C 203.886719 197.734375 204.730469 197.722656 205.574219 197.699219 C 237.464844 196.722656 263.039062 181.859375 283.589844 169.910156 C 292.164062 164.925781 299.800781 160.515625 305.789062 158.414062 C 305.808594 159.535156 305.871094 160.644531 305.871094 161.761719 Z M 18.140625 161.761719 C 18.140625 160.027344 18.214844 158.300781 18.269531 156.574219 C 18.457031 156.5 18.648438 156.457031 18.835938 156.367188 C 19.019531 156.277344 37.558594 147.453125 67.441406 150.054688 C 85.121094 151.59375 102.714844 159.898438 121.128906 169.320312 C 85.515625 169.75 44.394531 175.632812 20.453125 187.28125 C 18.964844 178.996094 18.140625 170.476562 18.140625 161.761719 Z M 274.511719 154.296875 C 255.71875 165.214844 232.335938 178.804688 205.023438 179.636719 C 181.945312 180.316406 159.457031 168.753906 135.683594 156.488281 C 114.324219 145.464844 92.242188 134.074219 69.007812 132.050781 C 46.988281 130.136719 30.175781 133.585938 20.398438 136.570312 C 22.507812 124.667969 26.085938 113.269531 30.941406 102.5625 C 33.980469 102.8125 36.953125 102.964844 39.835938 102.964844 C 68.09375 102.964844 89.175781 91.421875 111.34375 79.28125 C 137.484375 64.964844 164.460938 50.238281 208.753906 50.519531 C 243.292969 50.804688 277.277344 77.179688 277.605469 77.445312 C 278.105469 77.832031 278.621094 78.164062 279.164062 78.433594 C 291.964844 96.367188 300.777344 117.320312 304.234375 140.023438 C 295.277344 142.226562 285.554688 147.875 274.511719 154.296875 Z M 162 17.90625 C 186.578125 17.90625 209.734375 24.113281 229.996094 35.027344 C 223.183594 33.484375 216.097656 32.515625 208.898438 32.457031 C 159.976562 31.996094 129.515625 48.730469 102.664062 63.4375 C 82.0625 74.71875 63.933594 84.640625 40.507812 84.871094 C 66.046875 44.664062 110.945312 17.90625 162 17.90625 Z M 115.441406 297.855469 C 136.160156 286.296875 172.3125 282.792969 206.800781 298.453125 C 192.6875 303.089844 177.640625 305.632812 162 305.632812 C 145.710938 305.632812 130.054688 302.871094 115.441406 297.855469 Z M 228.308594 289.375 C 180.78125 260.824219 123.238281 266.191406 95.90625 289.480469 C 80.160156 281.300781 66.105469 270.304688 54.425781 257.144531 C 63.605469 248.707031 81.566406 235.636719 122.820312 236.675781 C 136.222656 237.011719 152.625 238.855469 169.992188 240.804688 C 207.222656 244.992188 248.367188 249.574219 281.074219 242.421875 C 267.6875 262.117188 249.539062 278.296875 228.308594 289.375 Z M 228.308594 289.375 " fill-opacity="1" fill-rule="nonzero"/></svg>