<svg width="726" height="862" viewBox="0 0 726 862" fill="none" xmlns="http://www.w3.org/2000/svg">
<g opacity="0.15">
<path d="M419.733 590.431C422.937 584.157 426.399 577.849 429.758 571.731C438.37 555.927 447.396 539.571 452.976 522.009C469.925 468.581 451.891 406.018 409.123 369.842C390.486 354.09 368.129 343.404 348.39 333.977C320.555 320.689 295.322 309.848 268.193 312.019C255.206 313.053 242.736 317.19 230.679 321.119C221.209 324.513 211.495 327.181 201.621 329.099C181.779 332.443 161.178 329.53 141.336 326.721C123.56 324.204 105.165 321.55 87.0275 323.274C41.0212 327.548 -2.74591 358.329 -46.7369 417.428C-52.7999 425.58 -58.794 434.042 -64.7192 442.246C-90.8658 478.835 -117.908 516.666 -156.146 540.036C-169.03 547.912 -183.188 554.1 -196.882 560.097C-206.235 564.182 -215.829 568.405 -225.164 573.162C-236.36 578.918 -251.724 588.363 -255.755 603.926C-258.355 613.939 -255.651 624.452 -252.672 633.414C-247.022 650.356 -239.168 666.953 -231.572 682.999C-217.792 712.298 -203.41 742.511 -202.91 774.809C-202.445 805.504 -214.864 836.734 -237.204 861.793H-230.314C-209.008 836.372 -197.261 805.315 -197.726 774.723C-198.243 741.305 -212.797 710.54 -226.887 680.793C-234.414 664.885 -242.199 648.426 -247.745 631.777C-250.484 623.539 -252.999 613.939 -250.742 605.218C-247.298 591.672 -233.105 583.054 -222.787 577.763C-213.675 573.075 -204.082 568.887 -194.798 564.837C-181.018 558.77 -166.619 552.514 -153.459 544.448C-114.308 520.526 -86.9559 482.265 -60.4476 445.245C-54.6085 437.075 -48.5627 428.63 -42.517 420.513C0.543945 362.673 43.1053 332.615 87.5614 328.41C105.13 326.79 123.199 329.34 140.681 331.857C160.989 334.718 182.02 337.682 202.689 334.218C212.82 332.252 222.787 329.522 232.505 326.049C244.269 322.188 256.446 318.172 268.796 317.19C294.633 315.122 319.229 325.687 346.306 338.664C365.752 347.954 387.799 358.484 405.919 373.806C447.155 408.672 464.482 468.977 448.188 520.457C442.762 537.537 433.926 553.669 425.366 569.266C421.921 575.402 418.476 581.762 415.272 588.104C390.814 636.572 377.502 689.9 376.311 744.183C375.329 784.019 380.815 823.75 392.553 861.828H397.979C370.231 773.396 377.723 672.71 419.733 590.431Z" fill="#FFFBEF"/>
<path d="M-35.8168 17.8036C-38.7104 22.0261 -41.7075 26.421 -44.429 30.7642C-58.5231 53.2792 -67.4692 78.6333 -70.6272 105.012C-71.9534 116.266 -72.3496 127.951 -72.5735 139.257C-73.2969 166.04 -73.9687 191.358 -86.8181 213.126C-108.865 250.474 -157.025 259.281 -183.774 261.228C-198.398 262.28 -213.417 262.159 -227.954 262.038C-251.328 261.849 -275.511 261.642 -298.919 266.347C-304.586 267.485 -310.27 268.915 -315.765 270.311C-324.524 272.732 -333.43 274.585 -342.428 275.861C-361.047 278.067 -380.115 275.223 -399.63 271.828C-416.389 268.915 -432.735 265.83 -448.289 260.022C-478.517 248.75 -504.182 227.638 -528.985 207.232C-540.904 197.442 -553.099 187.429 -565.897 178.381V184.706C-554.305 193.099 -543.178 202.251 -532.275 211.213C-507.127 231.895 -481.118 253.283 -450.08 264.865C-434.13 270.828 -417.526 273.965 -400.508 276.929C-385.54 279.532 -370.814 281.807 -356.207 281.807C-351.396 281.821 -346.587 281.55 -341.808 280.997C-332.589 279.698 -323.464 277.804 -314.49 275.326C-309.064 273.948 -303.449 272.534 -297.903 271.414C-275.029 266.812 -251.121 267.019 -227.989 267.209C-213.365 267.329 -198.225 267.45 -183.395 266.382C-155.647 264.365 -105.61 255.127 -82.3742 215.746C-68.8531 192.823 -68.1124 165.661 -67.4062 139.395C-67.0962 128.21 -66.7862 116.645 -65.4943 105.615C-62.4243 80.0024 -53.7371 55.3847 -40.0539 33.5217C-37.3669 29.2475 -34.4043 24.9044 -31.545 20.7335C-26.9462 14.0119 -22.2784 7.20416 -18.3685 0.0517024H-24.3281C-27.8418 6.1356 -31.9069 12.0127 -35.8168 17.8036Z" fill="#FFFBEF"/>
<path d="M408.09 0.275764C381.322 34.5516 365.066 75.8608 361.291 119.196C360.706 126.262 360.413 133.811 362.342 141.102C365.787 154.01 375.346 163.955 385.216 172.796C389.436 176.554 393.828 180.294 398.065 183.896C412.31 195.96 427.054 208.576 437.354 224.225C441.872 231.435 445.939 238.918 449.532 246.63C455.715 259.195 462.105 272.19 472.371 282.255C487.356 296.939 507.664 302.333 522.046 304.264C527.527 305.003 533.051 305.378 538.582 305.384C571.515 305.384 602.312 292.13 621.672 268.967C646.441 239.306 648.197 194.202 625.702 166.282C618.813 157.819 610.2 150.994 601.795 144.393C590.823 135.776 580.454 127.624 573.926 116.146C559.664 91.1206 568.896 59.0121 578.645 30.8848L589.325 0.0861794H583.864L573.771 29.1786C563.643 58.3916 554.118 91.8099 569.43 118.713C576.475 131.054 587.723 139.895 598.609 148.461C606.773 154.872 615.23 161.525 621.672 169.522C642.686 195.598 640.946 237.823 617.71 265.64C596.61 290.924 559.337 304.074 522.735 299.145C509.128 297.318 490.009 292.251 475.988 278.567C466.36 269.122 460.486 257.092 454.165 244.338C450.485 236.444 446.314 228.788 441.677 221.416C430.964 205.146 415.944 192.358 401.407 180.052C397.187 176.45 392.794 172.745 388.661 169.022C379.377 160.732 370.386 151.46 367.337 139.878C365.904 133.255 365.602 126.437 366.441 119.713C370.137 77.3826 386.009 37.0297 412.137 3.53315L414.859 0.0861794H408.228C408.228 0.0861794 408.124 0.206824 408.09 0.275764Z" fill="#FFFBEF"/>
<path d="M601.382 604.408C566.778 610.389 535.326 640.601 518.894 664.627C498.707 694.202 488.011 728.982 480.225 759.091C477.797 768.484 475.644 779.221 480.828 788.063C484.755 794.715 492.041 798.404 497.174 800.558C507.397 804.807 518.366 806.969 529.435 806.918C552.93 806.918 576.751 797.352 588.791 775.895C593.131 768.191 595.543 759.642 597.868 751.387C598.919 747.699 599.986 743.89 601.209 740.236C606.347 725.072 614.556 711.131 625.323 699.286C627.718 696.666 630.319 694.116 632.833 691.513C641.153 683.154 649.765 674.502 653.64 663.024C658.308 649.236 654.846 633.604 644.391 621.35C633.143 608.286 616.694 601.789 601.382 604.408ZM648.714 661.421C645.269 671.762 637.432 679.604 629.165 687.911C626.598 690.479 623.997 693.081 621.5 695.856C610.252 708.228 601.678 722.791 596.318 738.633C595.043 742.408 593.958 746.285 592.873 750.025C590.53 758.367 588.308 766.243 584.261 773.413C567.863 802.592 527.317 807.762 499.172 795.818C491.99 792.768 487.701 789.579 485.272 785.477C481.069 778.342 483.033 768.811 485.272 760.435C492.954 730.74 503.461 696.494 523.166 667.591C539.012 644.376 569.241 615.232 602.26 609.544C615.764 607.218 630.405 612.991 640.446 624.797C649.713 635.62 652.814 649.322 648.714 661.421Z" fill="#FFFBEF"/>
<path d="M-469.905 497.638C-492.192 539.321 -499.112 587.519 -489.455 633.794C-485.08 654.251 -477.846 667.402 -466.667 675.157C-459.554 680.104 -450.562 682.965 -439.108 683.913C-436.645 684.119 -434.234 684.223 -431.891 684.223C-422.724 684.416 -413.636 682.494 -405.331 678.604C-382.94 667.626 -374.327 643.307 -366.008 619.816C-362.909 610.518 -359.297 601.398 -355.191 592.499C-345.614 572.903 -330.25 556.444 -315.403 540.536C-307.807 532.401 -299.901 523.973 -292.891 515.166C-266.434 482.213 -258.201 446.641 -270.878 420.013C-281.212 398.383 -296.973 387.129 -317.866 386.595C-374.31 385.164 -451.165 462.996 -469.905 497.638ZM-318.038 391.765C-299.246 392.248 -284.95 402.502 -275.58 422.236C-258.097 458.981 -287.517 500.189 -296.956 511.857C-303.845 520.475 -311.682 528.868 -319.227 536.934C-334.333 553.135 -349.938 569.87 -359.859 590.155C-364.059 599.226 -367.751 608.524 -370.917 618.007C-379.271 641.584 -387.177 663.834 -407.639 673.899C-416.165 678.087 -426.586 679.707 -438.643 678.69C-449.133 677.829 -457.314 675.243 -463.636 670.849C-473.678 663.955 -480.257 651.718 -484.305 632.622C-493.713 587.519 -486.97 540.543 -465.255 499.914C-447.755 467.564 -372.949 391.765 -319.554 391.765H-318.038Z" fill="#FFFBEF"/>
<path d="M-71.2817 36.7791C-77.4308 46.8788 -83.7866 57.323 -88.2305 68.5257C-95.2236 86.1569 -97.3594 105.374 -99.4264 123.953C-100.133 130.261 -100.856 136.793 -101.752 143.17C-106.282 174.916 -116.168 196.839 -131.98 210.213C-147.482 223.329 -167.997 227.948 -187.684 231.567C-250.601 243.086 -314.615 247.469 -378.513 244.631C-395.238 243.873 -414.546 242.563 -432.236 236.358C-449.925 230.154 -465.393 219.503 -481.084 208.162C-509.986 187.291 -538.424 165.179 -565.914 142.274V144.531C-538.734 167.126 -510.641 188.945 -482.1 209.558C-466.288 220.968 -450.614 231.74 -432.804 237.979C-414.994 244.218 -395.427 245.596 -378.599 246.337C-365.968 246.912 -353.337 247.193 -340.705 247.182C-289.256 247.187 -237.913 242.526 -187.305 233.256C-168.358 229.809 -146.638 224.932 -130.809 211.54C-114.653 197.873 -104.576 175.588 -99.9775 143.411C-99.0819 137.017 -98.3412 130.468 -97.6349 124.143C-95.5853 105.667 -93.4667 86.5705 -86.5597 69.1634C-82.1847 58.0986 -75.8633 47.7232 -69.7487 37.6753C-65.5287 30.7814 -61.1366 23.5945 -57.4506 16.218C-54.8325 11.022 -52.6267 5.62812 -50.8536 0.0861794H-52.576C-54.3243 5.35578 -56.4602 10.4886 -58.9663 15.4424C-62.7385 22.75 -67.0789 29.8852 -71.2817 36.7791Z" fill="#FFFBEF"/>
<path d="M-120.991 18.6826C-127.131 27.2845 -132.607 36.3417 -137.372 45.7757C-144.261 60.3564 -146.552 76.4365 -148.791 91.9823C-149.618 97.7043 -150.514 103.616 -151.547 109.355C-156.629 136.638 -165.568 154.665 -179.692 166.109C-193.471 177.26 -212.143 181.379 -228.558 184.361C-283.623 194.366 -339.638 198.147 -395.548 195.633C-412.221 194.891 -429.996 193.495 -446.291 188.411C-454.75 185.696 -462.953 182.235 -470.801 178.07C-478.449 174.141 -485.907 169.78 -493.193 165.558L-500.737 161.163C-512.57 154.269 -524.162 147.496 -535.289 140.964C-546.416 134.432 -555.166 129.141 -563.589 123.867L-565.862 122.453V124.487L-564.381 125.418C-555.941 130.692 -547.157 135.983 -536.047 142.532C-524.937 149.081 -513.328 155.837 -501.478 162.731L-493.933 167.126C-486.699 171.366 -479.224 175.744 -471.542 179.69C-463.598 183.856 -455.304 187.316 -446.756 190.031C-430.186 195.202 -412.307 196.58 -395.599 197.322C-384.415 197.827 -373.231 198.074 -362.046 198.063C-317.164 198.059 -272.373 194.021 -228.213 185.998C-211.591 182.965 -192.662 178.777 -178.572 167.367C-164.121 155.665 -154.992 137.31 -149.825 109.596C-148.74 103.84 -147.878 97.8939 -147.052 92.1547C-144.83 76.7295 -142.522 60.7872 -135.787 46.4479C-131.057 37.0913 -125.621 28.1089 -119.527 19.5788C-115.273 13.2708 -110.915 6.77331 -107.074 0.0172517H-109.055C-112.775 6.48031 -116.926 12.6676 -120.991 18.6826Z" fill="#FFFBEF"/>
<path d="M-170.856 0.327466C-176.569 7.53999 -181.799 15.1226 -186.513 23.0257C-193.092 34.7109 -195.642 47.8094 -198.122 60.4598C-199.087 65.4407 -200.103 70.5766 -201.326 75.523C-204.771 89.6039 -211.368 109.734 -227.403 122.057C-239.46 131.243 -255.41 134.707 -269.431 137.241C-316.648 145.658 -364.655 148.791 -412.565 146.582C-427.137 145.927 -444.207 144.686 -460.311 140.412C-468.274 138.229 -476.083 135.517 -483.685 132.295C-488.852 130.157 -494.019 127.9 -498.963 125.711L-505.146 122.988C-518.926 116.99 -532.378 111.664 -544.952 107.114L-550.843 104.995C-556.01 103.168 -560.833 101.41 -565.897 99.4622V101.306C-561.039 103.168 -556.337 104.857 -551.428 106.615L-545.537 108.735C-532.998 113.267 -519.701 118.593 -505.921 124.573L-499.738 127.296C-494.76 129.485 -489.627 131.743 -484.425 133.897C-476.754 137.143 -468.877 139.878 -460.845 142.084C-444.586 146.393 -427.396 147.651 -412.738 148.288C-402.977 148.737 -393.217 148.955 -383.456 148.943C-345.142 148.963 -306.903 145.572 -269.19 138.809C-254.98 136.241 -238.789 132.708 -226.422 123.298C-209.955 110.734 -203.306 90.2244 -199.724 75.885C-198.484 70.9041 -197.485 65.7337 -196.503 60.7356C-194.057 48.2231 -191.525 35.2625 -185.083 23.8185C-180.416 15.9825 -175.238 8.46329 -169.581 1.30986L-168.599 0.034477H-170.77L-170.856 0.327466Z" fill="#FFFBEF"/>
<path d="M-235.637 0.275764C-241.751 9.20341 -244.593 19.3892 -247.349 29.2303C-248.503 33.3666 -249.692 37.6236 -251.104 41.6738C-255.238 53.5831 -261.714 68.474 -275.098 77.867C-285.432 85.1228 -298.695 87.9321 -310.304 89.9314C-349.673 96.8677 -389.686 99.4397 -429.618 97.6008C-444.663 97.1324 -459.644 95.4029 -474.401 92.4304C-482.221 90.7069 -489.696 88.6043 -496.62 86.5188L-500.737 85.2607C-506.455 83.5373 -511.847 81.8137 -517.255 80.4177C-529.534 76.951 -542.093 74.5636 -554.787 73.2825C-557.75 73.0068 -560.574 72.8344 -563.399 72.6448L-565.931 72.4897V74.2132L-563.503 74.3683C-560.712 74.5407 -557.905 74.7302 -554.89 74.9887C-542.299 76.2917 -529.842 78.6614 -517.651 82.0723C-512.277 83.5545 -506.886 85.1918 -501.185 86.9153L-497.068 88.1562C-490.178 90.2588 -482.583 92.4304 -474.677 94.1194C-459.828 97.0993 -444.755 98.8289 -429.618 99.2899C-421.247 99.669 -412.904 99.8529 -404.59 99.8414C-372.831 99.8802 -341.131 97.1176 -309.856 91.5859C-298.058 89.4832 -284.588 86.6223 -273.961 79.1768C-260.009 69.4047 -253.292 53.3246 -249.33 42.1564C-247.9 38.0545 -246.695 33.763 -245.541 29.6095C-242.819 19.9062 -240.012 9.85834 -234.069 1.17198L-233.225 0H-235.344C-235.455 0.0762811 -235.554 0.169304 -235.637 0.275764Z" fill="#FFFBEF"/>
<path d="M-300.848 7.79015C-305.309 16.4076 -311.82 27.007 -322.792 33.6424C-331.404 38.9335 -341.98 41.0878 -351.178 42.6907C-382.696 48.1004 -414.708 50.0767 -446.652 48.585C-460.651 48.0043 -474.608 46.6464 -488.456 44.5176C-493.52 43.7248 -498.549 42.7941 -503.407 41.8979L-509.573 40.7776C-517.393 39.3816 -523.68 38.4682 -529.364 37.8994C-543.143 36.6068 -554.942 37.1583 -564.674 39.6229L-565.914 39.9676V41.6911L-564.192 41.243C-554.787 38.9335 -542.764 38.3648 -529.45 39.6401C-523.818 40.1917 -517.582 41.1051 -509.797 42.5011L-503.648 43.6214C-498.773 44.5004 -493.744 45.431 -488.663 46.2411C-474.752 48.3772 -460.732 49.7352 -446.67 50.3085C-439.711 50.6417 -432.775 50.8026 -425.863 50.7911C-400.71 50.8303 -375.602 48.6967 -350.816 44.4142C-341.463 42.7769 -330.732 40.588 -321.827 35.1246C-310.494 28.2306 -303.811 17.2521 -299.246 8.51401C-297.817 5.75644 -296.542 2.861 -295.285 0.0172517H-297.179C-298.385 2.68865 -299.556 5.25663 -300.848 7.79015Z" fill="#FFFBEF"/>
<path d="M-557.043 0.0861794H-562.659C-563.778 0.499815 -564.863 0.930677 -565.914 1.39602V3.25738C-563.035 1.99355 -560.071 0.933872 -557.043 0.0861794Z" fill="#FFFBEF"/>
<path d="M-463.773 1.39602C-446.838 2.16963 -429.869 1.73191 -412.996 0.0861794H-483.616C-477.053 0.637694 -470.388 1.10302 -463.773 1.39602Z" fill="#FFFBEF"/>
<path d="M-470.215 605.546C-468.028 621.057 -463.463 632.57 -456.264 641.015C-452.94 645.052 -448.792 648.332 -444.099 650.636C-439.405 652.939 -434.274 654.213 -429.049 654.372C-426.444 654.384 -423.85 654.018 -421.35 653.286C-411.015 650.236 -402.179 640.688 -397.063 627.055C-394.952 620.983 -393.227 614.783 -391.896 608.493C-390.604 603.047 -389.261 597.428 -387.418 592.103C-379.77 569.956 -363.304 551.963 -348.508 536.848C-346.613 534.9 -344.684 532.953 -342.755 531.005C-328.717 516.804 -314.18 502.12 -304.362 484.471C-294.854 467.357 -283.262 431.043 -307.479 416.014C-329.027 402.657 -361.53 420.616 -378.995 432.525C-401.99 448.192 -419.834 469.304 -432.821 485.953C-441.61 496.833 -449.371 508.505 -456.005 520.819C-469.327 546.931 -474.289 576.514 -470.215 605.546ZM-454.403 521.578C-447.82 509.359 -440.117 497.779 -431.392 486.987C-418.491 470.442 -400.75 449.45 -377.996 433.904C-360.892 422.253 -329.079 404.605 -308.358 417.445C-285.26 431.784 -296.611 466.978 -305.843 483.592C-315.558 501.085 -329.957 515.683 -343.961 529.799L-349.731 535.641C-364.682 550.894 -381.269 569.06 -389.037 591.534C-390.897 596.946 -392.241 602.616 -393.55 608.097C-394.883 614.318 -396.609 620.448 -398.717 626.452C-403.626 639.567 -412.083 648.753 -421.884 651.632C-434.63 655.389 -447.72 648.461 -454.989 639.912C-461.965 631.708 -466.409 620.402 -468.545 605.305C-472.538 576.605 -467.6 547.371 -454.403 521.578Z" fill="#FFFBEF"/>
<path d="M-443.569 570.8C-442.605 579.797 -439.9 586.88 -435.543 591.896C-433.503 594.202 -430.998 596.049 -428.192 597.315C-425.386 598.58 -422.344 599.236 -419.266 599.238C-416.769 599.248 -414.292 598.792 -411.963 597.893L-411.291 597.618C-403.04 594.085 -397.959 585.553 -395.152 578.987C-393.929 576.16 -392.912 573.161 -391.827 569.99C-390.553 566.268 -389.244 562.424 -387.521 558.581C-381.803 545.896 -371.778 534.814 -362.821 525.421L-360.307 522.819C-352.022 514.201 -343.461 505.36 -337.777 495.019C-331.904 484.316 -325.858 463.996 -340.413 455.706C-346.458 452.259 -354.192 452.07 -363.338 455.172C-370.693 457.671 -378.737 462.238 -387.883 469.149C-399.67 478.345 -410.178 489.073 -419.128 501.051C-424.278 507.478 -428.887 514.321 -432.908 521.509C-435.955 527.153 -438.414 533.096 -440.245 539.243C-442.92 547.923 -444.165 556.981 -443.931 566.061C-443.793 567.629 -443.69 569.232 -443.569 570.8ZM-438.574 539.778C-436.778 533.743 -434.366 527.91 -431.375 522.37C-427.406 515.266 -422.855 508.504 -417.767 502.154C-408.865 490.305 -398.428 479.693 -386.729 470.597C-377.721 463.807 -369.849 459.308 -362.615 456.809C-354.003 453.862 -346.699 454 -341.084 457.188C-327.701 464.823 -333.557 484.04 -339.103 494.192C-344.65 504.343 -353.176 513.15 -361.375 521.612L-363.889 524.232C-372.949 533.728 -383.095 544.914 -388.916 557.874C-390.639 561.787 -392 565.682 -393.291 569.439C-394.359 572.576 -395.375 575.523 -396.564 578.297C-399.251 584.571 -404.074 592.723 -411.808 596.032L-412.428 596.291C-416.178 597.625 -420.24 597.811 -424.096 596.826C-427.952 595.841 -431.427 593.728 -434.079 590.758C-438.195 586.019 -440.762 579.245 -441.675 570.611C-441.847 569.094 -441.95 567.526 -442.019 565.992C-442.289 557.104 -441.108 548.233 -438.522 539.726L-438.574 539.778Z" fill="#FFFBEF"/>
<path d="M-409.034 545.086C-406.184 545.02 -403.444 543.966 -401.283 542.104C-398.961 539.884 -396.992 537.321 -395.444 534.504C-394.738 533.349 -393.997 532.143 -393.205 531.057C-391.581 529.118 -389.856 527.266 -388.038 525.507C-384.731 522.215 -380.649 518.131 -377.135 513.994C-371.416 507.221 -369.039 502.344 -369.883 499.052C-370.129 498.189 -370.587 497.403 -371.216 496.764C-371.845 496.126 -372.625 495.656 -373.483 495.398C-377.049 494.036 -381.097 494.485 -385.54 496.777C-389.813 499.194 -393.669 502.284 -396.96 505.928C-402.733 512.249 -407.953 519.053 -412.565 526.266L-413.013 526.938C-414.684 529.194 -415.933 531.734 -416.699 534.435C-417.102 535.876 -417.142 537.395 -416.818 538.856C-416.493 540.317 -415.813 541.676 -414.839 542.811C-414.089 543.582 -413.184 544.184 -412.182 544.577C-411.181 544.969 -410.108 545.143 -409.034 545.086ZM-414.891 534.745C-414.156 532.262 -412.99 529.929 -411.446 527.851L-410.998 527.179C-406.434 520.058 -401.277 513.336 -395.582 507.083C-392.42 503.578 -388.716 500.604 -384.61 498.276C-382.466 497.068 -380.06 496.399 -377.6 496.329C-376.369 496.318 -375.148 496.54 -374 496.984C-373.402 497.147 -372.855 497.458 -372.41 497.889C-371.964 498.32 -371.634 498.856 -371.451 499.448C-370.779 502.12 -373.173 506.618 -378.341 512.84C-381.785 516.924 -385.85 520.992 -389.123 524.249C-391.06 526.066 -392.884 528 -394.583 530.04C-395.393 531.195 -396.151 532.418 -396.874 533.608C-398.331 536.268 -400.184 538.691 -402.368 540.794C-405.521 543.5 -410.705 544.483 -413.427 541.605C-414.199 540.671 -414.735 539.565 -414.99 538.38C-415.245 537.195 -415.211 535.966 -414.891 534.797V534.745Z" fill="#FFFBEF"/>
<path d="M360.912 667.246C368.112 646.565 377.981 626.383 387.524 606.925C397.531 586.536 407.866 565.561 415.083 543.587C432.1 492.606 426.761 444.348 400.769 414.515C390.865 403.14 378.378 394.574 366.114 386.284C331.338 362.604 297.01 341.801 259.478 347.247C252.751 348.374 246.106 349.94 239.584 351.935C235.295 353.142 230.851 354.4 226.441 355.382C208.373 359.363 189.392 358.95 171.031 358.553L163.349 358.398C136.272 357.933 108.851 358.812 81.8428 361.001C71.3532 361.845 61.1736 362.948 51.9758 367.05C43.7254 370.721 36.715 376.633 30.807 381.872C11.5674 398.952 -10.1008 425.201 -4.03784 453.207C0.59552 474.664 21.6437 492.399 52.217 500.655C60.4847 502.895 69.0797 504.55 77.399 506.17C93.8138 509.341 110.78 512.633 125.627 520.44C155.357 535.952 176.939 570.542 183.363 612.888C187.893 642.911 185.396 673.865 182.984 703.802C182.382 711.213 181.761 718.865 181.262 726.396C179.161 758.039 178.954 789.779 180.642 821.446C181.331 834.424 182.485 848.471 186.154 861.81H187.876C184.138 848.488 182.984 834.373 182.295 821.36C180.61 789.779 180.817 758.125 182.915 726.569C183.415 719.054 184.035 711.402 184.638 704.008C187.049 673.968 189.564 642.911 184.982 612.664C178.489 569.784 156.579 534.745 126.42 518.958C111.262 511.03 94.1584 507.721 77.623 504.515C69.338 502.912 60.7775 501.241 52.5614 499.035C22.6082 490.934 2.04242 473.682 -2.47034 452.88C-8.34387 425.683 12.9454 399.969 31.8578 383.199C37.6624 378.029 44.5349 372.238 52.527 368.653C61.5009 364.672 71.4739 363.586 81.8085 362.742C108.765 360.57 136.117 359.691 163.159 360.156L170.824 360.311C189.289 360.708 208.356 361.121 226.648 357.089C231.109 356.123 235.553 354.865 239.876 353.642C246.331 351.669 252.908 350.12 259.564 349.005C296.476 343.645 330.477 364.275 364.977 387.767C377.034 395.988 389.539 404.501 399.305 415.704C424.883 445.003 430.102 492.692 413.274 543.087C406.005 564.872 395.688 585.881 385.715 606.201C376.156 625.693 366.269 645.841 359.035 666.695C336.35 732.187 340.191 801.54 350.422 861.845H352.145C342.189 801.678 338.314 732.411 360.912 667.246Z" fill="#FFFBEF"/>
<path d="M159.111 744.028C158.974 710.161 158.836 675.088 154.719 641.256C153.1 627.934 150.723 613.887 144.384 601.461C138.718 590.293 129.899 580.107 115.809 568.439C93.5037 549.964 71.0259 538.244 48.7892 533.608C13.7549 526.283 -23.5531 535.969 -53.3685 543.742C-92.6056 553.945 -141.454 566.647 -183.068 590.19C-195.297 597.084 -210.041 606.994 -215.553 622.333C-218.154 629.588 -218.722 638.206 -217.276 648.702C-214.055 672.331 -203.031 694.598 -192.369 716.142C-178.125 744.889 -164.69 772.051 -167.962 802.316C-170.374 824.583 -181.897 844.386 -194.987 861.759H-192.817C-179.916 844.524 -168.703 824.721 -166.257 802.505C-162.915 771.672 -177.108 743.011 -190.819 715.314C-201.429 693.892 -212.384 671.745 -215.57 648.392C-216.948 638.189 -216.397 629.83 -213.848 622.85C-208.543 608.045 -194.126 598.376 -182.155 591.62C-140.817 568.181 -92.0199 555.427 -52.869 545.345C-23.1396 537.606 13.8754 527.989 48.4965 535.228C70.4058 539.812 92.6942 551.394 114.793 569.697C128.693 581.21 137.357 591.224 142.92 602.168C149.121 614.353 151.533 628.227 153.048 641.394C157.165 675.192 157.303 710.161 157.441 743.959C157.596 783.013 157.768 822.963 164.072 861.759H165.794C159.439 823.067 159.284 783.082 159.111 744.028Z" fill="#FFFBEF"/>
<path d="M129.141 767.622C128.641 740.822 128.125 713.126 124.973 686.239C124.508 682.12 124.043 678.794 123.526 675.743C122.382 667.743 120.097 659.948 116.739 652.597C112.158 643.014 104.837 634.018 93.676 624.263C75.8315 608.751 57.3499 598.566 38.7303 594.274C11.1713 587.932 -17.1111 593.912 -46.0997 601.168C-82.512 610.147 -120.819 621.264 -154.217 641.67C-164.724 648.081 -176.058 656.371 -180.415 669.056C-182.499 675.14 -182.93 682.361 -181.759 691.134C-179.124 710.592 -170.374 729.051 -161.899 746.802C-159.763 751.284 -157.576 755.902 -155.509 760.452C-147.241 778.721 -140.007 798.524 -142.436 819.637C-144.244 834.89 -150.944 848.678 -159.987 861.862H-157.903C-149.067 848.764 -142.522 835.062 -140.679 819.844C-138.13 798.317 -145.519 778.239 -153.89 759.746C-155.957 755.179 -158.161 750.542 -160.297 746.061C-168.703 728.378 -177.401 710.092 -179.985 690.91C-181.139 682.43 -180.725 675.398 -178.727 669.625C-174.559 657.457 -163.518 649.408 -153.27 643.152C-120.061 622.867 -81.9091 611.802 -45.6346 602.857C-16.8527 595.687 11.2057 589.759 38.403 595.963C56.7297 600.186 74.9704 610.147 92.5909 625.573C103.563 635.155 110.763 643.979 115.241 653.338C118.526 660.543 120.765 668.18 121.89 676.019C122.389 679.052 122.837 682.361 123.319 686.36C126.454 713.177 126.971 740.822 127.47 767.57C128.039 798.8 128.659 830.702 133.464 861.759H135.187C130.33 830.805 129.709 798.869 129.141 767.622Z" fill="#FFFBEF"/>
<path d="M98.9984 790.234C98.2577 770.828 97.4826 750.749 95.3295 731.222C94.9678 727.775 94.6234 725.155 94.2444 722.605C93.3574 716.086 91.6202 709.713 89.0771 703.646C85.6322 695.632 79.8448 687.894 71.5255 680.017C58.2972 667.471 43.467 658.767 28.6712 654.872C6.27954 648.977 -16.9389 653.407 -38.8483 658.439C-75.3468 666.85 -103.664 678.156 -125.384 692.995C-133.427 698.493 -142.074 705.473 -145.295 715.625C-146.904 721.414 -147.216 727.487 -146.208 733.411C-144.175 748.681 -137.596 763.21 -131.395 777.256C-129.672 781.186 -127.812 785.271 -126.124 789.321C-119.992 803.901 -114.618 819.723 -116.892 836.785C-118.208 845.617 -121.195 854.116 -125.694 861.828H-123.73C-119.358 854.168 -116.439 845.765 -115.118 837.044C-112.792 819.585 -118.235 803.488 -124.471 788.786C-126.193 784.754 -127.915 780.669 -129.758 776.722C-135.994 762.779 -142.436 748.371 -144.434 733.359C-145.407 727.684 -145.112 721.863 -143.572 716.314C-140.524 706.663 -132.135 699.906 -124.35 694.598C-102.802 679.862 -74.6922 668.643 -38.3832 660.301C-16.6978 655.303 6.31403 650.908 28.2924 656.716C42.8125 660.542 57.3843 669.091 70.4059 681.448C78.5531 689.152 84.1854 696.701 87.6303 704.508C90.0798 710.435 91.7418 716.659 92.5737 723.018C92.9526 725.466 93.2971 728.189 93.6589 731.498C95.7947 750.973 96.5698 771 97.3104 790.389C98.2233 814.104 99.1534 838.285 102.633 861.914H104.355C100.721 838.199 99.8251 813.984 98.9984 790.234Z" fill="#FFFBEF"/>
<path d="M68.1151 810.399C67.3917 799.162 66.6338 787.563 65.5142 776.205C65.2903 773.999 65.0663 771.793 64.7736 769.604C64.2111 764.594 63.0903 759.663 61.432 754.903C58.7089 747.846 54.6104 741.402 49.3749 735.945C41.0353 726.632 30.4328 719.632 18.595 715.625C2.04242 710.299 -16.0604 712.781 -31.5968 715.9C-49.7686 719.554 -75.7946 727.5 -96.6016 744.545C-102.423 749.302 -108.09 754.765 -110.192 762.4C-111.26 766.813 -111.43 771.397 -110.691 775.878C-109.244 786.908 -104.99 797.49 -100.873 807.728C-99.478 811.175 -98.0485 814.759 -96.7567 818.275C-92.9328 828.616 -89.2985 840.956 -91.3654 853.986C-91.8044 856.642 -92.4552 859.259 -93.3118 861.811H-91.5894C-90.7832 859.345 -90.167 856.821 -89.7463 854.262C-87.6105 840.836 -91.3137 828.237 -95.2237 817.672C-96.5327 814.225 -97.9623 810.554 -99.3575 807.09C-103.44 796.939 -107.66 786.408 -109.072 775.654C-109.775 771.404 -109.623 767.056 -108.624 762.865C-106.643 755.678 -101.183 750.456 -95.5853 745.872C-74.9677 729.12 -49.1312 721.226 -31.2351 717.607C-15.9226 714.539 1.90466 712.074 18.0955 717.279C29.6458 721.208 39.9907 728.046 48.1348 737.134C53.2006 742.427 57.1696 748.671 59.8129 755.506C61.4346 760.142 62.5267 764.947 63.0684 769.828C63.3439 772 63.5851 774.189 63.809 776.377C64.9286 787.701 65.6692 799.3 66.3926 810.502C67.495 827.548 68.6146 844.834 71.1121 861.828H72.8345C70.3542 844.817 69.2174 827.479 68.1151 810.399Z" fill="#FFFBEF"/>
<path d="M35.785 821.205C35.6644 819.654 35.5438 818.103 35.3888 816.569C35.1236 813.046 34.5881 809.548 33.787 806.107C32.509 801.005 30.3082 796.18 27.2933 791.872C22.5605 785.13 16.1149 779.775 8.62219 776.36C-0.265564 772.379 -11.0309 771.397 -24.2764 773.327C-41.5008 775.843 -57.7261 784.357 -67.8196 796.111C-71.3481 799.748 -73.8502 804.256 -75.0711 809.175C-75.5606 812.201 -75.5606 815.285 -75.0711 818.31C-74.0441 824.907 -72.4183 831.397 -70.2138 837.699C-69.232 840.801 -68.1986 844.007 -67.3546 847.144C-65.988 851.91 -65.1958 856.822 -64.9948 861.776H-63.2724C-63.4637 856.67 -64.2733 851.606 -65.6838 846.695C-66.5278 843.507 -67.5613 840.284 -68.5603 837.165C-70.7531 830.942 -72.3787 824.533 -73.4175 818.017C-73.8755 815.163 -73.8755 812.254 -73.4175 809.399C-72.2361 804.775 -69.86 800.543 -66.5277 797.128C-56.6926 785.684 -40.8118 777.377 -24.0525 774.93C-11.1342 773.034 -0.679016 773.982 7.89868 777.825C15.1317 781.146 21.3417 786.348 25.8809 792.888C28.7742 797.032 30.8873 801.67 32.1161 806.573C32.8924 809.924 33.4164 813.329 33.6837 816.759C33.8214 818.293 33.942 819.827 34.0625 821.378C35.1304 834.821 36.2328 848.471 38.248 861.862H39.9705C37.9552 848.402 36.8528 834.717 35.785 821.205Z" fill="#FFFBEF"/>
<path d="M5.24622 848.04C3.89838 843.165 1.01514 838.855 -2.97528 835.75C-6.9657 832.645 -11.8505 830.911 -16.9043 830.805C-21.9641 830.904 -26.8566 832.635 -30.854 835.74C-34.8513 838.846 -37.7397 843.159 -39.0893 848.04C-40.0762 852.631 -40.1873 857.367 -39.4166 862H-37.6941C-38.4896 857.516 -38.4019 852.921 -37.4358 848.471C-36.1771 843.969 -33.5014 839.994 -29.806 837.134C-26.1105 834.275 -21.5922 832.684 -16.9215 832.597C-12.2457 832.697 -7.72681 834.304 -4.03687 837.179C-0.346985 840.055 2.31683 844.045 3.55829 848.557C4.36115 852.449 4.62189 856.434 4.33331 860.397C4.33331 860.931 4.33331 861.466 4.33331 862H6.05573C6.05573 861.483 6.05573 860.966 6.05573 860.449C6.36157 856.295 6.08917 852.119 5.24622 848.04Z" fill="#FFFBEF"/>
<path d="M374.399 530.919C378.105 530.542 381.715 529.509 385.061 527.868C391.072 524.525 395.189 517.528 396.963 507.445C401.458 482.041 391.571 452.949 371.126 431.612C354.263 413.722 330.27 400.279 299.852 391.317C280.095 385.509 262.75 383.079 246.852 383.906C234.416 384.544 222.067 387.249 210.13 389.835C202.551 391.558 194.714 393.195 186.929 394.367C169.911 396.918 152.342 396.987 135.359 397.056C125.024 397.056 114.449 397.056 104.011 397.728C92.9698 398.349 81.3262 399.624 70.8882 404.743C59.5718 410.292 51.5797 420.254 50.064 430.595C45.4478 462.238 83.2036 472.958 105.768 479.37L106.801 479.663C119.909 483.403 132.276 488.901 144.247 494.226C151.739 497.57 159.49 501.12 167.431 504.05C219.672 523.939 275.083 534.418 325.533 534.418C341.887 534.506 358.224 533.336 374.399 530.919ZM144.936 492.761C132.879 487.418 120.494 481.886 107.266 478.111L106.233 477.818C84.2198 471.562 47.3597 461.083 51.7692 430.957C53.216 421.081 60.8292 411.654 71.6461 406.346C81.8084 401.365 93.2454 400.107 104.114 399.452C114.449 398.866 125.11 398.814 135.376 398.78C152.411 398.78 170.032 398.642 187.187 396.074C195.024 394.902 202.878 393.178 210.492 391.524C222.376 388.938 234.606 386.267 246.956 385.629C262.63 384.819 279.785 387.215 299.37 392.971C329.495 401.813 353.23 415.17 369.903 432.612C389.952 453.638 399.667 482.144 395.275 507.014C394.103 513.632 391.227 522.353 384.217 526.231C381.054 527.775 377.642 528.744 374.14 529.092C312.701 538.623 237.586 528.885 168.034 502.413C160.162 499.517 152.394 496.07 144.936 492.744V492.761Z" fill="#FFFBEF"/>
<path d="M332.802 492.33C339.468 476.422 335.541 458.188 322.467 444.728C312.942 434.852 299.301 427.303 281.904 422.322C272.193 419.303 262.068 417.832 251.899 417.962C244.637 418.36 237.416 419.317 230.3 420.823C226.269 421.581 222.101 422.357 218.002 422.891C210.213 423.785 202.382 424.257 194.542 424.304H192.113C185.224 424.442 178.213 424.58 171.306 425.166C164.853 425.445 158.503 426.893 152.566 429.44C146.004 432.594 141.319 437.937 140.061 443.745C139.467 446.191 139.41 448.737 139.895 451.206C140.38 453.676 141.394 456.011 142.869 458.05C148.656 466.15 161.075 470.442 169.274 473.286C175.846 475.686 182.286 478.436 188.565 481.524C193.061 483.644 197.711 485.833 202.465 487.746C231.418 499.598 262.354 505.849 293.634 506.17C301.552 506.191 309.463 505.696 317.317 504.688C319.384 504.475 321.408 503.964 323.329 503.171C327.325 501.361 330.546 497.707 332.802 492.33ZM322.467 501.603C320.689 502.328 318.815 502.792 316.904 502.981C282.128 507.549 240.635 501.413 203.034 486.16C198.331 484.247 193.715 482.076 189.254 479.973C182.937 476.863 176.457 474.096 169.842 471.683C161.833 468.908 149.741 464.789 144.281 457.068C142.937 455.231 142.014 453.121 141.576 450.887C141.138 448.653 141.198 446.35 141.749 444.142C142.886 438.851 147.21 433.956 153.307 431.026C159.057 428.577 165.201 427.182 171.444 426.907C178.334 426.338 185.344 426.2 192.113 426.045H194.542C202.445 425.999 210.34 425.521 218.191 424.615C222.342 424.08 226.528 423.287 230.593 422.546C237.617 421.049 244.746 420.099 251.916 419.703C261.966 419.53 271.978 420.961 281.577 423.942C298.681 428.889 312.081 436.283 321.382 445.917C333.904 458.877 337.694 476.405 331.303 491.658C329.133 496.622 326.205 499.896 322.553 501.62L322.467 501.603Z" fill="#FFFBEF"/>
<path d="M243.89 451.535C240.628 451.973 237.44 452.855 234.416 454.155C230.834 455.62 228.905 457.464 228.491 459.791C228.078 462.117 229.129 464.237 231.626 466.685C238.791 473.734 249.264 477.939 261.114 478.542H262.027C268.641 478.542 275.083 474.957 277.253 469.925C278.976 465.944 277.805 461.652 273.912 457.86C268.038 452.173 251.003 450.691 243.89 451.535ZM275.686 469.304C273.705 473.837 267.349 477.129 261.2 476.819C249.781 476.25 239.704 472.2 232.832 465.461C230.782 463.427 229.904 461.669 230.196 460.084C230.489 458.498 232.074 456.964 235.071 455.741C237.949 454.508 240.978 453.668 244.079 453.242C245.487 453.094 246.901 453.024 248.316 453.035C256.309 453.035 268.331 454.862 272.706 459.136C276.099 462.462 277.133 465.978 275.686 469.304Z" fill="#FFFBEF"/>
<path d="M320.314 717.452C322.037 706.456 324.345 695.27 326.532 684.447C332.354 655.648 338.383 625.849 335.558 596.239C334.938 589.742 333.732 582.313 329.46 576.591C324.396 569.801 316.008 566.612 309.256 564.527C287.726 558.098 266.523 558.512 249.539 565.716C241.375 569.163 235.26 573.799 231.402 579.504C226.51 586.691 225.184 595.515 224.512 603.185C223.698 615.63 223.623 628.113 224.288 640.567C224.616 649.977 224.943 659.715 224.599 669.263C223.755 692.289 218.932 715.297 214.264 737.53C211.663 749.957 208.959 762.814 206.978 775.568C201.621 810.037 203.154 838.526 211.646 861.742H213.489C204.877 838.612 203.326 810.278 208.683 775.757C210.664 763.055 213.351 750.232 215.952 737.84C220.637 715.435 225.46 692.444 226.287 669.28C226.631 659.663 226.286 649.908 225.976 640.446C225.314 628.061 225.383 615.648 226.183 603.271C226.82 595.825 228.095 587.277 232.78 580.435C236.449 575.057 242.288 570.645 250.159 567.302C266.781 560.27 287.571 559.856 308.722 566.182C315.216 568.129 323.277 571.162 328.031 577.556C332.044 582.934 333.198 590.069 333.784 596.342C336.591 625.642 330.58 655.372 324.793 684.05C322.588 694.874 320.332 706.077 318.575 717.107C310.974 765.136 312.141 814.146 322.02 861.759H323.742C313.886 814.26 312.725 765.366 320.314 717.452Z" fill="#FFFBEF"/>
<path d="M282.972 860.966C281.766 854.072 278.717 847.747 275.755 841.646C274.716 839.011 273.083 836.651 270.984 834.752C269.809 833.748 268.332 833.169 266.789 833.107C265.246 833.044 263.727 833.502 262.475 834.407C259.908 836.648 260.201 840.405 260.839 843.766L264.197 861.793H265.92L262.475 843.455C261.941 840.56 261.648 837.372 263.56 835.7C264.508 835.061 265.642 834.755 266.783 834.83C267.923 834.905 269.007 835.356 269.864 836.113C271.744 837.851 273.21 839.989 274.153 842.37C277.064 848.367 280.061 854.572 281.215 861.225C281.215 861.414 281.215 861.604 281.215 861.793H282.937C283.041 861.535 283.024 861.242 282.972 860.966Z" fill="#FFFBEF"/>
<path d="M304.898 822.636C300.894 762.94 305.922 702.982 319.815 644.79L320.332 642.618C322.381 634.121 324.483 625.383 324.379 616.421C324.224 605.46 320.349 595.843 313.735 590.017C309.652 586.45 304.209 583.882 296.614 581.969C280.474 577.918 266.557 580.814 259.34 589.759C254.552 595.705 253.191 603.547 252.209 611.13C250.693 622.901 249.643 634.948 248.626 646.599C246.542 670.452 244.389 695.098 238.102 718.52C236.38 724.587 234.537 730.585 232.677 736.565C230.816 742.545 228.853 748.629 227.217 754.679C217.934 789.778 217.828 826.675 226.907 861.828H228.629C219.502 826.839 219.567 790.083 228.818 755.127C230.438 749.06 232.367 742.976 234.244 737.082C236.122 731.188 238.051 725.018 239.687 718.968C246.008 695.391 248.179 670.711 250.263 646.754C251.279 635.121 252.33 623.091 253.863 611.354C254.793 604.046 256.102 596.429 260.615 590.827C270.639 578.401 290.327 582.21 296.131 583.64C303.452 585.484 308.653 587.932 312.529 591.327C318.781 596.808 322.45 605.959 322.588 616.438C322.691 625.056 320.607 633.811 318.592 642.29L318.075 644.445C304.149 702.808 299.103 762.939 303.107 822.808C303.748 835.978 305.71 849.05 308.964 861.828H310.686C307.155 849.074 305.777 835.596 304.898 822.636Z" fill="#FFFBEF"/>
<path d="M289.586 806.125C289.212 793.477 289.545 780.818 290.585 768.208L294.03 714.591C294.805 702.25 295.752 686.911 288.776 674.554C287.948 672.853 286.651 671.424 285.039 670.435C281.353 668.487 276.995 670.745 274.136 673.503C265.903 681.465 263.44 693.047 261.045 704.267C260.511 706.766 259.977 709.248 259.323 711.678C256.343 723.949 251.296 735.807 246.422 747.388C240.342 761.728 234.072 776.567 231.695 792.199C228.25 815.001 232.987 837.544 240.1 861.845H241.823C234.692 837.561 229.904 815.07 233.331 792.458C235.674 776.946 241.943 762.297 247.938 748.043C252.829 736.461 257.91 724.466 260.925 712.057C261.51 709.627 262.044 707.111 262.647 704.612C264.99 693.65 267.418 682.31 275.273 674.726C277.684 672.383 281.301 670.418 284.16 671.934C285.475 672.78 286.53 673.973 287.209 675.381C293.978 687.273 293.014 702.337 292.239 714.453L288.794 768.053C287.752 780.744 287.418 793.483 287.795 806.211C288.708 825.169 292.738 843.679 297.716 861.828H299.438C294.564 843.628 290.482 825.049 289.586 806.125Z" fill="#FFFBEF"/>
<path d="M280.302 831.27C279.837 830.254 279.355 829.237 278.872 828.22C276.531 823.777 274.755 819.058 273.585 814.173C272.877 809.614 272.64 804.994 272.878 800.385C273.016 792.199 273.154 783.737 267.987 777.274L267.659 776.86L267.143 776.963C259.478 778.566 253.07 785.822 250.022 796.37C245.388 812.364 248.006 829.116 250.556 845.368C251.4 850.78 252.278 856.278 252.864 861.776H254.586C253.983 856.175 253.122 850.591 252.261 845.11C249.746 829.064 247.094 812.467 251.675 796.852C254.483 787.166 260.167 780.445 266.971 778.773C271.414 784.685 271.294 792.302 271.156 800.368C270.918 805.075 271.166 809.794 271.897 814.449C273.097 819.474 274.914 824.331 277.305 828.909C277.787 829.926 278.27 830.926 278.735 831.942C283.02 841.575 286.477 851.556 289.069 861.776H290.792C288.155 851.332 284.646 841.127 280.302 831.27Z" fill="#FFFBEF"/>
<path d="M-29.0648 94.2056C-33.0636 110.275 -36.2144 126.545 -38.5038 142.946C-40.7429 157.233 -43.0682 172.004 -46.5648 186.274C-55.5042 222.846 -71.2817 249.078 -93.4839 264.227C-108.073 274.189 -125.642 279.273 -140.903 282.927C-183.688 293.164 -228.265 297.008 -271.36 300.713L-331.886 305.884C-376.894 309.762 -427.912 314.156 -472.162 293.974C-491.832 284.995 -509.194 271.569 -525.988 258.471L-565.914 227.448V229.637L-527.056 259.85C-510.176 272.948 -492.728 286.512 -472.885 295.56C-446.67 307.504 -418.198 310.934 -389.984 310.934C-370.142 310.934 -350.368 309.21 -331.731 307.625L-271.205 302.454C-228.144 298.749 -183.361 294.905 -140.506 284.633C-125.091 280.945 -107.332 275.809 -92.5194 265.675C-69.9554 250.284 -53.9367 223.708 -44.8939 186.705C-41.4491 172.366 -39.055 157.561 -36.7986 143.221C-34.2666 127.176 -31.6312 110.579 -27.394 94.6537C-17.9382 59.6275 -0.518799 27.2626 23.504 0.0861794H21.2132C-2.47845 27.2272 -19.6736 59.4161 -29.0648 94.2056Z" fill="#FFFBEF"/>
<path d="M4.07495 162.094C2.69696 167.557 1.43958 173.158 0.199463 178.587C-3.91718 196.822 -8.18884 215.694 -17.0249 232.36C-33.8704 264.227 -63.8408 282.531 -85.9224 292.286C-115.6 305.332 -148.102 310.916 -176.247 315.104C-207.664 319.792 -239.77 323.515 -270.878 327.169C-322.224 333.115 -375.309 339.233 -427.861 337.337C-480.412 335.441 -526.884 325.273 -565.88 307.073V308.969C-526.832 326.996 -480.516 337.131 -427.93 339.061C-421.178 339.302 -414.426 339.423 -407.674 339.423C-361.65 339.423 -315.489 334.08 -270.602 328.875C-239.598 325.29 -207.44 321.567 -175.989 316.811C-147.741 312.605 -115.101 307.004 -85.2335 293.871C-62.8418 284.013 -32.5096 265.468 -15.4403 233.153C-6.51807 216.297 -2.22919 197.322 1.92188 178.967C3.14484 173.555 4.40216 167.953 5.78015 162.507C21.2329 101.466 52.2823 45.4947 95.8808 0.0861794H93.5038C50.2714 45.4984 19.4705 101.297 4.07495 162.094Z" fill="#FFFBEF"/>
<path d="M-373.276 776.498C-372.22 761.585 -371.996 746.625 -372.605 731.688C-373.139 708.162 -373.69 683.826 -367.334 660.921C-357.585 625.762 -332.885 597.48 -308.771 570.128C-293.442 552.652 -277.612 534.573 -265.538 514.649C-252.844 493.709 -243.146 468.977 -236.033 439.04C-232.932 426.011 -230.573 412.223 -234.31 399.555C-238.461 385.767 -250.45 373.393 -266.365 366.637C-281.35 360.242 -298.04 358.95 -312.388 358.536C-353.313 357.364 -394.755 362.742 -434.819 367.981C-477.76 373.565 -522.009 379.321 -565.725 376.943V378.667C-521.837 381.045 -477.536 375.22 -434.544 369.687C-394.531 364.517 -353.176 359.088 -312.388 360.26C-298.213 360.673 -281.712 361.983 -266.985 368.222C-251.483 374.789 -239.925 386.698 -235.981 400.055C-232.123 412.929 -234.827 426.717 -237.704 438.644C-244.817 468.391 -254.394 492.968 -266.985 513.753C-279.042 533.539 -294.785 551.566 -310.046 569.008C-334.16 596.497 -359.049 624.918 -368.902 660.456C-375.326 683.602 -374.775 708.076 -374.241 731.739C-373.633 746.625 -373.851 761.533 -374.896 776.395C-377.7 806.717 -387.487 835.977 -403.488 861.879H-401.473C-385.681 835.947 -376.035 806.74 -373.276 776.498Z" fill="#FFFBEF"/>
<path d="M-452.181 391.593C-464.617 388.146 -477.846 390.714 -489.507 393.04L-565.862 408.276V409.999L-489.162 394.695C-477.691 392.403 -464.686 389.8 -452.664 393.213C-441.365 396.418 -430.565 407.001 -431.995 419.168C-433.062 427.906 -439.918 434.8 -445.981 440.884C-504.423 499.569 -545.193 563.613 -565.793 627.71V633.57C-545.865 567.957 -504.63 502.223 -444.758 442.091C-438.505 435.817 -431.426 428.699 -430.272 419.375C-428.808 406.328 -440.245 394.988 -452.181 391.593Z" fill="#FFFBEF"/>
<path d="M-424.33 827.151C-430.207 839.096 -436.799 850.676 -444.069 861.828H-441.985C-434.94 850.907 -428.534 839.588 -422.797 827.927C-414.649 811.709 -407.019 794.181 -406.175 775.722C-405.262 755.351 -413.961 736.375 -428.36 727.465C-435.87 722.777 -444.654 720.692 -453.163 718.675C-462.103 716.555 -471.335 714.366 -478.845 709.144C-485.511 704.508 -490.454 697.735 -495.242 691.168C-497.637 687.894 -500.1 684.516 -502.787 681.414C-510.434 672.503 -523.732 663.782 -536.013 668.539C-543.66 671.503 -548.517 678.88 -551.514 684.257C-558.404 696.322 -562.59 709.679 -565.931 723.156V730.619C-562.349 714.866 -557.922 699.165 -550.016 685.102C-547.157 679.931 -542.523 672.9 -535.41 670.142C-523.973 665.713 -511.399 674.054 -504.096 682.534C-501.478 685.584 -499.032 688.945 -496.655 692.185C-491.78 698.855 -486.751 705.749 -479.844 710.558C-472.058 715.969 -462.62 718.193 -453.577 720.347C-445.206 722.329 -436.559 724.397 -429.29 728.964C-415.407 737.582 -407.036 756.006 -407.915 775.757C-408.724 793.767 -416.286 811.106 -424.33 827.151Z" fill="#FFFBEF"/>
<path d="M-508.109 424.976C-503.269 427.613 -500.72 432.732 -499.497 436.558C-494.519 451.346 -500.324 466.064 -504.233 473.527C-509.762 484.075 -517.858 493.244 -525.678 502.102L-527.642 504.326C-541.421 520.044 -555.665 537.658 -565.983 557.047V560.787C-555.648 540.381 -540.818 521.888 -526.367 505.463L-524.403 503.257C-516.515 494.312 -508.35 485.057 -502.718 474.32C-498.687 466.616 -492.693 451.397 -497.878 436.007C-499.273 431.888 -502.046 426.372 -507.368 423.46C-511.485 421.202 -516.325 420.978 -520.907 421.047C-536.422 421.329 -551.736 424.619 -566 430.733V432.68C-551.754 426.45 -536.417 423.099 -520.872 422.822C-516.428 422.701 -511.881 422.908 -508.109 424.976Z" fill="#FFFBEF"/>
<path d="M-489.024 861.828H-487.026C-482.938 855.102 -479.406 848.052 -476.468 840.75C-471.387 827.806 -466.615 808.296 -472.868 788.838C-477.027 775.953 -485.51 764.902 -496.879 757.557C-502.644 753.577 -509.399 751.275 -516.394 750.904C-533.911 750.611 -546.261 766.157 -550.739 772.896C-557.431 783.44 -562.544 794.908 -565.914 806.935V813.036C-562.021 799.248 -557.302 785.719 -549.31 773.844C-544.986 767.346 -533.188 752.266 -516.428 752.628C-509.752 752.991 -503.307 755.198 -497.809 759.005C-486.825 766.206 -478.628 776.944 -474.573 789.441C-468.458 808.4 -473.144 827.496 -478.121 840.181C-481.138 847.692 -484.786 854.933 -489.024 861.828Z" fill="#FFFBEF"/>
<path d="M-521.63 861.828H-519.908L-518.564 857.364C-515.119 845.816 -510.848 831.512 -514.43 818.086C-514.743 816.593 -515.41 815.198 -516.377 814.018C-518.237 811.985 -521.544 811.399 -525.351 812.295C-540.129 816.069 -547.346 832.529 -550.808 845.679C-551.29 847.488 -551.738 849.315 -552.203 851.142C-553.082 854.692 -553.926 858.26 -555.028 861.759H-553.306C-552.307 858.312 -551.446 854.968 -550.602 851.573C-550.136 849.729 -549.689 847.919 -549.206 846.11C-545.865 833.407 -538.872 817.517 -524.989 813.967C-523.473 813.587 -519.822 812.915 -517.72 815.121C-516.947 816.097 -516.415 817.243 -516.17 818.465C-512.725 831.339 -516.911 845.455 -520.287 856.795L-521.63 861.828Z" fill="#FFFBEF"/>
<path d="M-307.41 631.484C-330.129 636.93 -345.752 674.089 -351.419 695.253C-357.551 718.106 -358.412 744.286 -353.985 773.068C-350.816 793.647 -341.17 829.857 -312.113 840.991C-306.824 842.989 -301.213 844 -295.56 843.972C-277.457 843.972 -258.493 834.183 -247.039 817.586C-234.207 799.024 -230.107 773.723 -235.481 746.354C-240.27 722.07 -251.397 699.631 -262.145 677.932C-263.488 675.243 -264.866 672.124 -266.313 668.815C-274.254 650.77 -285.105 626.141 -307.41 631.484ZM-237.17 746.63C-234.121 762.141 -231.503 792.009 -248.451 816.552C-263.075 837.699 -290.169 847.488 -311.493 839.319C-339.741 828.496 -349.162 792.957 -352.28 772.741C-356.672 744.2 -355.725 718.262 -349.748 695.632C-344.202 674.951 -328.941 638.43 -307.014 633.173C-305.154 632.713 -303.246 632.475 -301.33 632.467C-284.209 632.467 -275.235 652.804 -267.898 669.453C-266.434 672.762 -265.038 675.916 -263.695 678.639C-252.981 700.234 -241.906 722.553 -237.17 746.63Z" fill="#FFFBEF"/>
<path d="M-301.899 686.877C-304.432 686.952 -306.922 687.553 -309.211 688.642C-311.5 689.731 -313.538 691.284 -315.196 693.202C-325.651 705.266 -323.532 731.119 -322.275 746.63C-322.103 748.767 -321.948 750.68 -321.844 752.3C-321.104 764.365 -319.674 774.223 -315.161 783.134C-309.77 793.785 -300.245 800.799 -290.324 801.437H-288.98C-286.701 801.502 -284.443 800.986 -282.418 799.938C-278.095 797.559 -276.183 792.578 -274.977 788.494C-272.152 778.859 -270.792 767.812 -270.671 753.8C-270.671 746.182 -271.067 707.386 -286.69 692.496C-288.679 690.53 -291.065 689.011 -293.688 688.042C-296.31 687.073 -299.11 686.676 -301.899 686.877ZM-272.393 753.834C-272.514 767.726 -273.857 778.584 -276.631 788.063C-277.733 791.82 -279.49 796.404 -283.245 798.404C-285.383 799.446 -287.768 799.876 -290.135 799.644C-301.262 798.921 -309.529 790.2 -313.542 782.272C-317.917 773.654 -319.313 763.986 -320.053 752.128C-320.139 750.491 -320.312 748.56 -320.484 746.423C-321.707 731.188 -323.791 705.697 -313.818 694.254C-312.312 692.516 -310.463 691.109 -308.389 690.118C-306.314 689.128 -304.058 688.576 -301.761 688.497C-299.208 688.325 -296.647 688.696 -294.248 689.588C-291.849 690.479 -289.666 691.869 -287.844 693.667C-272.462 708.438 -272.359 749.25 -272.393 753.834Z" fill="#FFFBEF"/>
<path d="M41.0728 130.967C37.8347 141.067 34.9583 151.494 32.1851 161.594C25.2092 186.86 18.0095 212.988 4.6261 235.876C-17.0938 273.275 -56.8477 304.091 -110.329 324.997C-113.671 326.296 -117.047 327.582 -120.457 328.858C-145.433 338.32 -171.252 348.092 -186.048 369.928C-193.816 381.39 -197.519 395.005 -200.396 406.863C-206.774 433.249 -210.963 460.118 -212.918 487.194C-214.003 502.206 -210.644 511.633 -202.945 515.218C-200.892 516.158 -198.657 516.635 -196.4 516.614C-190.853 516.614 -185.273 514.098 -181.104 511.909C-140.903 490.727 -112.62 453.035 -85.2679 416.583C-57.1405 379.115 -28.0657 340.353 13.8583 320.068C48.7205 303.161 89.6456 300.782 125.731 298.662C201.983 294.199 288.398 289.149 362.393 325.187C384.286 335.855 404.679 350.057 424.401 363.776C442.246 376.202 460.693 389.059 480.26 399.297C521.52 420.54 567.667 430.471 614.007 428.079C653.083 426.433 691.314 416.169 725.965 398.021V396.074C650.85 436.248 556.943 437.437 481.156 397.711C461.692 387.525 443.262 374.702 425.486 362.311C405.73 348.523 385.285 334.304 363.255 323.584C288.863 287.391 202.207 292.423 125.748 296.887C89.5767 299.007 48.4105 301.42 13.2383 318.465C-29.0648 338.975 -58.2773 377.908 -86.5253 415.549C-113.757 451.846 -141.919 489.383 -181.793 510.341C-187.305 513.253 -195.4 516.735 -202.084 513.632C-209.077 510.375 -212.108 501.568 -211.075 487.298C-209.129 460.309 -204.958 433.526 -198.604 407.225C-195.762 395.522 -192.111 382.079 -184.498 370.859C-170.012 349.471 -144.451 339.836 -119.717 330.443C-116.272 329.151 -112.827 327.875 -109.572 326.566C-55.7454 305.522 -15.6814 274.447 6.24524 236.72C19.663 213.626 26.9145 187.394 33.8042 162.007C36.5773 151.942 39.4537 141.515 42.6747 131.45C55.9374 90.2071 81.774 35.2108 131.208 0.0861794H128.28C79.776 35.521 54.215 89.9658 41.0728 130.967Z" fill="#FFFBEF"/>
<path d="M65.652 141.946C63.4645 151.391 61.7766 161.128 60.1575 170.556C57.0054 188.877 53.75 207.835 46.4985 225.19C33.9764 255.144 9.03552 282.169 -29.7538 307.797C-43.1543 316.656 -57.3127 324.877 -70.9889 332.839C-89.8152 343.783 -109.279 355.106 -127.123 368.239C-157.025 390.231 -172.01 413.395 -171.665 437.075V437.713L-171.028 437.885C-168.116 438.686 -165.109 439.092 -162.089 439.092C-142.935 439.092 -125.676 422.977 -111.001 406.57C-59.328 348.833 -1.31628 292.251 73.5063 269.294C101.186 260.797 131.983 256.558 173.408 255.506C270.467 253.128 345.496 270.914 402.802 309.917C411.19 315.639 419.372 321.981 427.278 328.065C434.374 333.528 441.694 339.199 449.17 344.404C493.385 375.288 546.729 392.661 603.431 394.574C645.377 396.204 687.179 388.731 725.965 372.669V370.635C637.467 407.742 528.919 397.969 450.152 342.956C442.728 337.785 435.408 332.115 428.328 326.652C420.405 320.533 412.206 314.208 403.766 308.469C346.151 269.243 270.794 251.353 173.373 253.748C131.828 254.765 100.893 259.039 73.0413 267.536C-2.16034 290.614 -60.4476 347.402 -112.241 405.312C-128.656 423.684 -148.309 441.66 -169.908 436.334C-169.908 413.481 -155.199 391.024 -126.038 369.566C-108.28 356.503 -88.8505 345.196 -70.076 334.287C-56.2965 326.307 -42.2069 318.069 -28.7375 309.176C10.3446 283.323 35.4921 256.092 48.152 225.794C55.4724 208.266 58.7623 189.204 61.9315 170.797C63.5506 161.387 65.2214 151.667 67.4089 142.274C80.9376 85.2506 114.229 34.8718 161.368 0.0861794H158.491C111.945 35.0799 79.1013 85.2658 65.652 141.946Z" fill="#FFFBEF"/>
<path d="M135.393 46.9132C120.305 69.5081 108.248 95.9808 96.2597 132.76C89.1805 154.493 83.5309 179.294 95.433 198.873C108.368 220.106 135.514 224.139 154.116 224.139C158.974 224.139 163.263 223.863 166.57 223.553C213.713 219.106 248.041 205.939 274.584 182.086C325.826 136.052 358.639 68.8704 364.03 0.103405H362.307C356.916 68.3878 324.31 135.087 273.43 180.811C247.18 204.388 213.144 217.435 166.397 221.847C150.758 223.312 112.675 223.932 96.8626 197.994C85.3395 179.035 90.903 154.665 97.8616 133.311C109.798 96.6874 121.803 70.3526 136.789 47.8784C148.913 29.3165 164.316 13.1212 182.244 0.0861794H179.35C162.076 13.0047 147.198 28.8537 135.393 46.9132Z" fill="#FFFBEF"/>
<path d="M132.224 134.001C131.102 138.918 130.564 143.951 130.622 148.995C131.535 171.728 153.29 188.17 173.787 190.927C176.727 191.323 179.69 191.519 182.657 191.513C198.676 191.513 215.952 185.895 235.14 174.485C295.666 138.499 335.592 70.4388 337.849 0.0861794H336.126C333.87 69.8528 294.271 137.327 234.261 173.003C211.87 186.343 192.113 191.651 173.976 189.221C154.185 186.55 133.189 170.745 132.31 148.926C132.254 144.015 132.78 139.115 133.878 134.328C145.346 79.4092 177.921 31.1979 224.581 0.0861794H221.498C175.583 31.5232 143.595 79.5071 132.224 134.001Z" fill="#FFFBEF"/>
<path d="M225.753 32.591C214.264 43.3111 202.379 54.3759 193.267 67.595C186.102 77.9359 177.766 94.2228 178.575 112.647C178.57 117.54 179.866 122.346 182.33 126.573C186.257 132.743 194.025 136.483 202.551 136.483C203.395 136.483 204.274 136.483 205.118 136.379C214.023 135.586 222.032 131.295 228.698 127.193C250.724 113.454 269.32 94.8593 283.067 72.8301C296.814 50.8009 305.347 25.9195 308.016 0.0861794H306.294C301.126 50.6359 271.035 99.1347 227.819 125.728C221.326 129.727 213.523 133.915 204.98 134.656C196.109 135.449 187.756 131.898 183.794 125.642C181.514 121.668 180.326 117.16 180.349 112.578C179.522 94.6192 187.721 78.7287 194.732 68.5774C203.74 55.5134 215.556 44.4486 226.975 33.8492L263.147 0.0861794H260.615L225.753 32.591Z" fill="#FFFBEF"/>
<path d="M254.879 42.0357C231.592 38.1751 218.828 75.1956 215.866 89.7763C215.584 90.6027 215.508 91.4858 215.647 92.3481C215.785 93.2104 216.132 94.0257 216.658 94.7226C217.159 95.1424 217.738 95.459 218.362 95.6542C218.985 95.8494 219.642 95.9194 220.292 95.8601H220.447C228.939 95.8601 237.93 91.9995 245.767 85.1918C254.38 77.6946 269.985 60.7355 267.022 50.2223C265.799 45.9308 261.717 43.1732 254.879 42.0357ZM244.544 83.8992C237.017 90.4312 228.422 94.0677 220.43 94.1367C219.53 94.2695 218.613 94.0402 217.881 93.499C217.14 92.7579 217.313 91.3102 217.554 90.052C220.241 76.8674 232.78 40.071 254.586 43.6731C260.718 44.6899 264.335 47.0166 265.351 50.567C268.193 60.7356 251.365 78.0566 244.63 83.8992H244.544Z" fill="#FFFBEF"/>
<path d="M405.454 215.332C398.565 206.163 390.9 196.891 380.479 191.203C373.402 187.584 365.739 185.249 357.846 184.309C329.736 180.104 303.4 186.601 285.624 202.147C280.457 206.628 277.443 210.765 276.048 215.332C274.497 220.278 275.066 227.017 279.785 230.981C281.79 232.489 284.031 233.654 286.417 234.428C316.422 245.924 346.306 258.833 375.208 272.827L375.863 273.155C383.545 276.878 391.503 280.721 400.08 281.979C401.604 282.198 403.14 282.308 404.679 282.307C408.431 282.385 412.16 281.7 415.639 280.293C419.118 278.885 422.275 276.785 424.918 274.12C427.428 271.373 429.215 268.044 430.117 264.433C431.02 260.823 431.008 257.044 430.085 253.438C427.88 243.218 419.217 232.515 411.569 223.053C409.33 220.33 407.315 217.728 405.454 215.332ZM423.661 272.931C418.252 278.722 409.313 281.548 400.322 280.221C392.019 278.997 384.182 275.206 376.621 271.604L375.966 271.276C347.012 257.264 317.093 244.321 287.037 232.825C284.831 232.12 282.754 231.061 280.888 229.689C277.443 226.741 276.065 221.071 277.684 215.901C278.993 211.695 281.887 207.766 286.761 203.492C300.679 191.324 319.97 184.826 341.259 184.826C346.725 184.835 352.183 185.25 357.588 186.067C365.282 186.993 372.752 189.275 379.652 192.806C389.78 198.321 397.376 207.421 404.076 216.452C405.799 218.865 407.969 221.485 410.208 224.242C417.735 233.549 426.261 244.08 428.38 253.903C429.228 257.218 429.24 260.691 428.417 264.012C427.593 267.333 425.959 270.397 423.661 272.931Z" fill="#FFFBEF"/>
<path d="M379.549 213.798C372.263 208.421 358.277 205.301 348.373 204.664C344.166 204.201 339.912 204.879 336.057 206.628C334.072 207.589 332.41 209.109 331.275 211.001C330.14 212.892 329.581 215.075 329.667 217.28C330.006 219.591 330.958 221.769 332.423 223.587C338.383 231.791 348.114 236.152 357.553 239.909C362.014 241.922 366.809 243.091 371.695 243.356C373.912 243.378 376.111 242.944 378.154 242.08C380.508 241.094 382.552 239.489 384.068 237.435C385.584 235.38 386.516 232.954 386.766 230.413C387.065 227.258 386.56 224.08 385.298 221.174C384.036 218.269 382.058 215.731 379.549 213.798ZM385.044 230.292C384.854 232.547 384.046 234.705 382.709 236.53C381.372 238.355 379.557 239.774 377.465 240.633C371.436 243.235 364.357 240.84 358.191 238.375C348.976 234.704 339.502 230.464 333.818 222.64C332.527 221.065 331.682 219.172 331.372 217.159C331.32 215.297 331.812 213.461 332.788 211.875C333.764 210.289 335.182 209.022 336.867 208.231C339.649 206.888 342.72 206.255 345.806 206.387C346.581 206.387 347.408 206.387 348.269 206.387C356.33 206.904 371.04 209.662 378.516 215.177C380.802 216.933 382.602 219.246 383.745 221.894C384.887 224.543 385.334 227.439 385.044 230.309V230.292Z" fill="#FFFBEF"/>
<path d="M397.962 67.1642C391.279 89.3282 390.952 106.959 396.963 121.057C400.408 129.072 405.765 135.879 411.104 142.032C414.761 146.448 418.796 150.536 423.161 154.252C425.9 156.475 428.862 158.457 431.773 160.387C433.789 161.749 435.856 163.145 437.819 164.593C457.558 179.225 469.994 202.113 480.105 222.398L480.553 223.312C483.291 229.281 486.59 234.977 490.405 240.323C494.948 246.14 500.615 250.982 507.07 254.559C513.524 258.136 520.633 260.375 527.971 261.142C529.826 261.334 531.688 261.432 533.552 261.435C546.506 261.371 559.08 257.054 569.344 249.147C573.276 246.183 576.722 242.624 579.558 238.599C583.096 233.133 585.6 227.063 586.948 220.692C589.594 209.374 589.965 197.642 588.037 186.179C586.109 174.716 581.921 163.752 575.717 153.924C572.944 149.581 569.775 145.445 566.709 141.429C564.366 138.396 561.955 135.259 559.819 132.053C546.35 112.387 539.441 88.9628 540.08 65.1304C540.819 41.5707 548.895 18.8304 563.178 0.0861794H561.025C546.981 18.919 539.052 41.6102 538.306 65.096C537.661 89.2944 544.671 113.078 558.338 133.053C560.577 136.293 562.989 139.447 565.331 142.498C568.38 146.479 571.532 150.581 574.253 154.872C586.435 174.387 590.398 197.934 585.277 220.365C583.98 226.5 581.563 232.343 578.146 237.599C575.423 241.486 572.104 244.917 568.311 247.768C556.882 256.593 542.535 260.757 528.161 259.419C521.046 258.683 514.153 256.522 507.891 253.063C501.629 249.605 496.128 244.92 491.714 239.288C487.979 234.023 484.745 228.421 482.051 222.553L481.586 221.64C471.407 201.165 458.85 178.07 438.801 163.214C436.803 161.732 434.701 160.318 432.686 158.957C429.861 157.061 426.951 155.079 424.264 152.907C419.948 149.24 415.96 145.203 412.344 140.843C407.091 134.776 401.786 128.107 398.479 120.316C392.622 106.529 392.984 89.2937 399.547 67.595C406.944 43.2076 418.608 20.327 433.995 0.0172517H431.825C416.725 20.2614 405.266 42.9835 397.962 67.1642Z" fill="#FFFBEF"/>
<path d="M455.009 0.0861794H452.753C441.951 12.8384 433.758 27.589 428.638 43.5007C422.162 64.4066 422.489 86.2258 429.551 104.926C436.613 123.625 450.221 139.016 463.259 153.873C474.352 166.437 485.806 179.449 493.333 194.478C494.418 196.649 495.434 198.907 496.433 201.096C498.338 205.578 500.566 209.915 503.099 214.074C507.784 221.33 513.916 226.138 520.324 227.569C521.777 227.89 523.262 228.052 524.75 228.051C535.085 228.051 544.3 220.175 548.262 211.644C552.361 202.819 552.998 191.858 550.208 178.122C547.177 163.283 541.337 148.978 535.705 135.138C529.263 119.317 522.58 102.961 520.203 85.8812C517.654 67.6467 520.048 49.1193 522.718 33.4183C524.682 21.9399 527.248 10.3237 532.036 0.0861794H530.142C525.491 10.3064 522.959 21.7849 521.013 33.1254C518.326 48.9642 515.845 67.595 518.498 86.1225C520.927 103.357 527.644 119.868 534.12 135.793C539.736 149.581 545.54 163.783 548.537 178.467C551.259 191.824 550.656 202.44 546.711 210.92C542.474 220.037 531.916 228.379 520.703 225.88C514.709 224.535 508.956 220.003 504.512 213.126C502.021 209.046 499.834 204.789 497.967 200.389C496.968 198.183 495.934 195.908 494.832 193.702C487.219 178.467 475.678 165.385 464.517 152.718C451.512 137.999 438.077 122.764 431.119 104.305C424.16 85.8467 423.884 64.5444 430.24 43.9833C435.482 27.8417 443.904 12.9153 455.009 0.0861794Z" fill="#FFFBEF"/>
<path d="M485.048 0.0861794H482.74C471.37 13.318 463.72 29.336 460.572 46.4996C457.128 64.1653 457.817 83.4338 462.484 103.788C463.776 109.424 465.791 115.525 471.097 118.162C472.594 118.91 474.246 119.293 475.919 119.282C478.498 119.149 481.008 118.406 483.245 117.115C485.481 115.824 487.38 114.021 488.786 111.854C492.455 106.27 493.161 99.5139 493.953 92.8958C496.537 68.5429 499.947 43.9488 504.047 19.8201C505.356 12.2023 506.785 5.41174 510.626 0H508.508C505.063 5.51515 503.616 12.1506 502.359 19.5271C498.242 43.6558 494.832 68.3189 492.231 92.7234C491.559 99.0486 490.87 105.581 487.442 110.82C484.239 115.697 477.401 119.282 471.941 116.542C467.307 114.215 465.464 108.562 464.258 103.323C459.66 83.1925 459.091 64.1653 462.364 46.7409C465.517 29.4055 473.363 13.2681 485.048 0.0861794Z" fill="#FFFBEF"/>
<path d="M619.708 0.0861794H617.245C603.452 14.2887 595.433 33.1186 594.75 52.9109C593.906 74.713 601.347 97.9455 615.729 118.283C618.261 121.885 621.017 125.418 623.687 128.813C627.459 133.639 631.352 138.62 634.659 143.842C641.29 154.321 646.441 167.092 650.867 184.016C656.62 206.042 666.507 260.866 633.936 294.078C616.573 311.795 591.615 318.931 567.26 325.824C550.759 330.53 542.216 337.717 541.837 347.178C541.579 353.797 545.971 360.501 553.033 364.275C559.078 367.481 566.037 368.36 573.254 369.049C587.596 370.394 601.347 371.072 614.507 371.083C658.687 371.083 695.926 363.379 725.914 348.126V346.248C687.211 366.171 636.123 373.255 573.409 367.326C566.123 366.637 559.63 365.809 553.842 362.742C547.349 359.295 543.318 353.211 543.508 347.23C543.852 338.613 551.982 331.943 567.777 327.427C592.184 320.533 617.435 313.278 635.124 295.233C668.298 261.383 658.308 205.836 652.486 183.534C648.008 166.42 642.789 153.511 636.072 142.877C632.627 137.568 628.786 132.536 624.996 127.71C622.344 124.263 619.588 120.816 617.073 117.249C602.932 97.2045 595.594 74.3511 596.404 52.9109C597.282 32.5221 605.98 13.0468 619.708 0.0861794Z" fill="#FFFBEF"/>
<path d="M650.919 0.0861794H648.456C633.574 14.2877 626.96 36.2793 627.218 55.0825C627.58 82.0378 639.275 107.838 650.092 129.899C651.281 132.312 652.469 134.707 653.675 137.12C664.01 157.923 674.706 179.415 678.667 202.458C683.938 233.136 677.582 267.864 659.256 308.607C657.309 312.95 655.105 317.879 656.121 322.877C657.843 330.96 666.679 334.631 675.912 334.631C677.932 334.632 679.949 334.459 681.94 334.114C698.786 331.202 713.461 322.774 726 312.209V309.951C713.409 320.792 698.648 329.478 681.647 332.357C671.416 334.08 659.583 331.271 657.792 322.481C656.896 318.034 658.98 313.381 660.84 309.262C679.305 268.191 685.695 233.136 680.373 202.113C676.359 178.829 665.611 157.216 655.208 136.31C654.019 133.897 652.814 131.485 651.625 129.089C640.843 107.183 629.234 81.6069 628.941 54.9791C628.596 36.0553 635.452 13.874 650.919 0.0861794Z" fill="#FFFBEF"/>
<path d="M704.366 0.0861794H701.369C682.043 14.167 671.64 39.1748 669.797 60.9596C667.282 90.4656 676.394 119.92 684.42 145.91C692.86 173.193 701.645 201.423 699.492 230.137C699.371 231.86 699.216 233.48 699.044 235.152C698.26 240.925 698.208 246.773 698.889 252.559C699.991 259.453 704.056 267.674 711.962 270.346C713.568 270.901 715.258 271.175 716.957 271.156C720.091 271.134 723.176 270.378 725.965 268.95V267.019C723.973 268.219 721.753 268.992 719.446 269.289C717.139 269.586 714.796 269.4 712.565 268.743C705.331 266.313 701.61 258.402 700.629 252.301C699.977 246.662 700.041 240.964 700.818 235.342C700.973 233.618 701.128 231.895 701.266 230.292C703.384 201.234 694.6 172.848 686.125 145.41C678.133 119.558 669.091 90.2588 671.571 61.132C673.397 39.0024 684.214 13.5293 704.366 0.0861794Z" fill="#FFFBEF"/>
<path d="M725.965 52.9971V49.2399C718.525 63.0278 713.34 79.556 710.464 98.6694C707.294 119.937 705.641 157.561 725.965 185.774V182.775C707.467 155.2 709.12 119.403 712.186 98.9107C714.324 82.9734 718.975 67.4763 725.965 52.9971Z" fill="#FFFBEF"/>
<path d="M406.143 822.084C403.491 790.958 401.527 754.265 406.85 718.193C416.461 653.148 448.291 594.688 479.089 538.158C487.563 522.646 497.157 504.963 511.591 492.727C530.538 476.698 555.978 470.855 578.473 465.702C617.796 456.688 662.373 446.468 704.659 455.827C710.274 457.068 715.906 458.67 721.349 460.204L725.914 461.497V459.773L721.832 458.619C716.354 457.068 710.688 455.465 705.038 454.207C662.373 444.779 617.59 455.034 578.094 464.099C555.393 469.27 529.677 475.181 510.471 491.486C495.796 503.929 486.116 521.716 477.573 537.399C446.707 594.067 414.79 652.649 405.23 718.003C399.874 754.196 401.786 791.061 404.507 822.291C405.644 835.614 407.16 849.263 411.087 861.931H412.809C408.813 849.195 407.315 835.458 406.143 822.084Z" fill="#FFFBEF"/>
<path d="M463.122 624.263C485.186 566.526 511.798 531.781 546.832 514.942C564.246 506.566 583.796 502.878 602.312 500.293C635.314 495.553 681.751 491.313 725.914 503.343V501.62C681.596 489.659 635.124 493.916 602.071 498.655C583.399 501.327 563.712 504.981 546.074 513.46C499.568 535.865 475.454 587.105 461.52 623.763C438.163 684.878 416.133 774.189 438.163 861.948H439.886C417.856 774.361 439.817 685.24 463.122 624.263Z" fill="#FFFBEF"/>
<path d="M465.464 759.194C470.538 725.473 479.665 692.488 492.644 660.956C515.725 605.029 547.177 568.836 586.155 553.324C603.81 546.43 623.05 543.811 641.273 541.794C668.109 538.847 697.993 536.624 725.931 543.259V541.536C697.855 534.917 667.954 537.175 641.084 540.14C622.774 542.156 603.397 544.707 585.535 551.773C546.109 567.284 514.33 603.84 491.077 660.353C478.033 692.008 468.867 725.128 463.776 758.988C457.507 800.679 459.935 834.58 471.166 861.88H473.026C461.658 834.7 459.195 800.903 465.464 759.194Z" fill="#FFFBEF"/>
<path d="M541.096 852.504C547.418 848.04 554.876 845.162 561.972 842.37C564.866 841.249 567.863 840.095 570.757 838.836C597.162 827.187 618.665 806.665 631.542 780.824C635.279 772.856 638.585 764.692 641.445 756.368C644.184 748.853 646.992 741.098 650.454 733.79C655.193 724.3 660.478 715.092 666.283 706.214C676.738 689.548 687.538 672.331 690.242 652.631C691.009 645.702 691.263 638.726 691 631.76C691 626.745 690.862 621.557 691.207 616.507C691.878 606.476 694.807 592.861 704.831 584.967C710.934 580.481 718.404 578.252 725.965 578.659V576.936C718.022 576.568 710.196 578.961 703.815 583.709C693.291 591.999 690.242 606.115 689.536 616.455C689.192 621.626 689.26 626.796 689.329 631.863C689.59 638.737 689.342 645.621 688.589 652.459C685.936 671.797 675.223 688.859 664.871 705.353C659.031 714.279 653.717 723.538 648.955 733.083C645.51 740.46 642.617 748.267 639.878 755.816C637.036 764.081 633.753 772.187 630.043 780.1C617.34 805.551 596.142 825.756 570.119 837.216C567.26 838.457 564.28 839.612 561.404 840.663C554.152 843.49 546.643 846.42 540.149 851.004C536.047 853.886 532.539 857.532 529.814 861.742H531.847C534.369 858.147 537.499 855.021 541.096 852.504Z" fill="#FFFBEF"/>
<path d="M614.73 848.746C617.796 846.661 621 844.61 624.101 842.645C634.108 836.251 644.443 829.65 652.125 820.378C662.27 808.141 666.8 792.526 671.175 777.429C673.069 770.897 675.033 764.141 677.41 757.764C681.888 746.607 687.101 735.759 693.015 725.293C702.093 708.369 711.463 690.824 714.115 671.572C714.339 669.952 714.529 668.298 714.701 666.643C715.424 660.025 716.182 653.148 719.868 647.685C721.431 645.397 723.492 643.494 725.897 642.118V640.205C722.919 641.723 720.362 643.956 718.456 646.703C714.494 652.459 713.719 659.525 712.978 666.385C712.806 668.108 712.617 669.642 712.393 671.262C709.792 690.22 700.474 707.593 691.482 724.38C685.527 734.932 680.285 745.872 675.791 757.126C673.38 763.572 671.416 770.345 669.504 776.912C665.181 791.837 660.702 807.279 650.781 819.24C643.271 828.306 633.04 834.838 623.222 841.146C620.122 843.128 616.901 845.179 613.818 847.281C607.579 851.432 601.86 856.315 596.783 861.828H599.108C603.833 856.921 609.071 852.536 614.73 848.746Z" fill="#FFFBEF"/>
<path d="M694.962 798.404C703.264 777.032 711.79 755.144 725.965 738.392V735.807C710.825 752.921 701.955 775.636 693.36 797.852C684.369 820.964 675.119 844.714 658.739 861.897H661.099C676.962 844.593 686.057 821.154 694.962 798.404Z" fill="#FFFBEF"/>
<path d="M725.965 809.692C719.088 817.679 713.158 826.435 708.293 835.786L706.95 838.216C702.678 846.39 697.879 854.277 692.585 861.828H694.703C699.743 854.518 704.344 846.916 708.483 839.06L709.826 836.613C714.355 827.967 719.763 819.812 725.965 812.278V809.692Z" fill="#FFFBEF"/>
<path d="M596.008 647.082C587.654 644.669 575.941 654.734 568.948 660.749L567.226 662.197C539.431 685.728 521.31 718.709 516.345 754.799C515.88 758.419 515.535 762.59 517.292 766.174C518.488 768.31 520.242 770.079 522.366 771.293C524.49 772.508 526.904 773.121 529.349 773.068C529.676 773.086 530.004 773.086 530.331 773.068C535.413 772.508 540.176 770.313 543.904 766.812C555.048 757.178 559.406 742.683 563.798 728.896C566.761 719.296 569.809 709.386 575.011 700.992C578.281 696.419 582.029 692.208 586.19 688.428C595.956 678.725 607.048 667.746 603.414 656.096C601.95 651.063 599.47 648.116 596.008 647.082ZM585.07 687.067C580.821 690.944 576.993 695.259 573.65 699.941C568.328 708.558 565.245 718.555 562.248 728.241C557.821 742.58 553.636 756.127 542.87 765.433C539.422 768.685 535.02 770.74 530.314 771.293C528.043 771.515 525.756 771.077 523.728 770.031C521.699 768.986 520.015 767.378 518.877 765.399C517.327 762.245 517.654 758.401 518.085 755.058C522.991 719.392 540.897 686.798 568.363 663.541L570.085 662.093C576.165 656.923 585.948 648.461 593.286 648.461C594.055 648.457 594.82 648.562 595.56 648.771C598.419 649.581 600.555 652.218 601.898 656.509C605.205 667.074 594.509 677.708 585.07 687.067Z" fill="#FFFBEF"/>
</g>
</svg>
